<svg width="25" height="20" viewBox="0 0 25 20" fill="none" xmlns="http://www.w3.org/2000/svg">
<path d="M20.2857 9.99997C20.2857 10.3031 20.1653 10.5938 19.951 10.8081C19.7367 11.0224 19.446 11.1428 19.1429 11.1428C18.8398 11.1428 18.5491 11.0224 18.3347 10.8081C18.1204 10.5938 18 10.3031 18 9.99997C18 9.69687 18.1204 9.40618 18.3347 9.19185C18.5491 8.97752 18.8398 8.85712 19.1429 8.85712C19.446 8.85712 19.7367 8.97752 19.951 9.19185C20.1653 9.40618 20.2857 9.69687 20.2857 9.99997Z" fill="#028AB8"/>
<path fill-rule="evenodd" clip-rule="evenodd" d="M9.936 0H13.4926C15.5931 0 17.2571 1.36239e-07 18.5589 0.174857C19.8983 0.355429 20.9829 0.734857 21.8389 1.58971C22.8949 2.64686 23.232 4.06171 23.3543 5.89829C24.0137 6.18743 24.512 6.80114 24.5657 7.57829C24.5714 7.648 24.5714 7.72229 24.5714 7.79086V12.2091C24.5714 12.2777 24.5714 12.352 24.5669 12.4206C24.512 13.1977 24.0137 13.8126 23.3543 14.1029C23.232 15.9383 22.8949 17.3531 21.8389 18.4103C20.9829 19.2651 19.8983 19.6446 18.5589 19.8251C17.256 20 15.5931 20 13.4926 20H9.936C7.83543 20 6.17143 20 4.86971 19.8251C3.53029 19.6446 2.44571 19.2651 1.58971 18.4103C0.734857 17.5543 0.355429 16.4697 0.174857 15.1303C0 13.8274 0 12.1646 0 10.064V9.936C0 7.83543 0 6.17143 0.174857 4.86971C0.355429 3.53029 0.734857 2.44571 1.58971 1.58971C2.44571 0.734857 3.53029 0.355429 4.86971 0.174857C6.17257 1.36239e-07 7.83543 0 9.936 0ZM21.6206 14.2857H19.4057C16.9543 14.2857 14.856 12.4251 14.856 10C14.856 7.57486 16.9543 5.71429 19.4046 5.71429H21.6194C21.4891 4.18171 21.1954 3.37143 20.6251 2.80229C20.1417 2.31886 19.4789 2.02857 18.3291 1.87429C17.1554 1.71657 15.6069 1.71429 13.4274 1.71429H9.99886C7.81943 1.71429 6.272 1.71657 5.096 1.87429C3.94743 2.02857 3.28457 2.31886 2.80114 2.80229C2.31771 3.28571 2.02743 3.94857 1.87314 5.09829C1.71543 6.27314 1.71314 7.82057 1.71314 10C1.71314 12.1794 1.71543 13.7269 1.87314 14.9029C2.02743 16.0514 2.31771 16.7143 2.80114 17.1977C3.28457 17.6811 3.94743 17.9714 5.09714 18.1257C6.272 18.2834 7.81943 18.2857 9.99886 18.2857H13.4274C15.6069 18.2857 17.1554 18.2834 18.3303 18.1257C19.4789 17.9714 20.1417 17.6811 20.6251 17.1977C21.1954 16.6286 21.4903 15.8194 21.6206 14.2857ZM4.57143 5.42857C4.57143 5.20124 4.66173 4.98323 4.82248 4.82248C4.98322 4.66173 5.20124 4.57143 5.42857 4.57143H10C10.2273 4.57143 10.4453 4.66173 10.6061 4.82248C10.7668 4.98323 10.8571 5.20124 10.8571 5.42857C10.8571 5.6559 10.7668 5.87392 10.6061 6.03466C10.4453 6.19541 10.2273 6.28571 10 6.28571H5.42857C5.20124 6.28571 4.98322 6.19541 4.82248 6.03466C4.66173 5.87392 4.57143 5.6559 4.57143 5.42857ZM22.4846 7.42857H19.4057C17.7783 7.42857 16.5703 8.63886 16.5703 10C16.5703 11.3611 17.7783 12.5714 19.4046 12.5714H22.5109C22.7463 12.5566 22.848 12.3977 22.856 12.3017V7.69829C22.848 7.60229 22.7463 7.44343 22.5109 7.42972H22.4834L22.4846 7.42857Z" fill="#028AB8"/>
</svg>
