<svg width="17" height="22" viewBox="0 0 17 22" fill="none" xmlns="http://www.w3.org/2000/svg">
<path fill-rule="evenodd" clip-rule="evenodd" d="M14.4375 8.25V19.9375H2.0625V2.0625H8.25V5.84375C8.25 7.172 9.328 8.25 10.6562 8.25H14.4375ZM14.2711 6.1875L10.3125 2.22888V5.84375C10.3125 6.0335 10.4665 6.1875 10.6562 6.1875H14.2711ZM0 1.375C0 1.01033 0.144866 0.660591 0.402728 0.402728C0.660591 0.144866 1.01033 0 1.375 0L10.4308 0C10.7954 7.78764e-05 11.1451 0.144995 11.4029 0.402875L16.0971 5.09713C16.355 5.35493 16.4999 5.70461 16.5 6.06925V20.625C16.5 20.9897 16.3551 21.3394 16.0973 21.5973C15.8394 21.8551 15.4897 22 15.125 22H1.375C1.01033 22 0.660591 21.8551 0.402728 21.5973C0.144866 21.3394 0 20.9897 0 20.625V1.375ZM5.15625 11C4.88275 11 4.62044 11.1087 4.42705 11.302C4.23365 11.4954 4.125 11.7577 4.125 12.0312C4.125 12.3048 4.23365 12.5671 4.42705 12.7605C4.62044 12.9538 4.88275 13.0625 5.15625 13.0625H11.3438C11.6173 13.0625 11.8796 12.9538 12.073 12.7605C12.2663 12.5671 12.375 12.3048 12.375 12.0312C12.375 11.7577 12.2663 11.4954 12.073 11.302C11.8796 11.1087 11.6173 11 11.3438 11H5.15625ZM4.125 15.4688C4.125 15.1952 4.23365 14.9329 4.42705 14.7395C4.62044 14.5462 4.88275 14.4375 5.15625 14.4375H8.59375C8.86725 14.4375 9.12956 14.5462 9.32295 14.7395C9.51635 14.9329 9.625 15.1952 9.625 15.4688C9.625 15.7423 9.51635 16.0046 9.32295 16.198C9.12956 16.3913 8.86725 16.5 8.59375 16.5H5.15625C4.88275 16.5 4.62044 16.3913 4.42705 16.198C4.23365 16.0046 4.125 15.7423 4.125 15.4688Z" fill="#7A40ED"/>
</svg>
