<svg width="22" height="24" viewBox="0 0 22 24" fill="none" xmlns="http://www.w3.org/2000/svg">
<path d="M4.77461 6.922C3.66261 7.844 3.37061 9.405 2.78461 12.525C1.96161 16.915 1.55061 19.109 2.75061 20.555C3.95061 22 6.18261 22 10.6476 22H11.3696C15.8346 22 18.0676 22 19.2666 20.555C20.4666 19.109 20.0536 16.915 19.2316 12.525C18.6456 9.405 18.3536 7.844 17.2416 6.922M17.2436 6.922C16.1326 6 14.5446 6 11.3686 6H10.6466C7.47161 6 5.88361 6 4.77261 6.922" stroke="#CC1372" stroke-width="2.5"/>
<path d="M8.00861 6V5C8.00861 4.20435 8.32468 3.44129 8.88729 2.87868C9.44989 2.31607 10.213 2 11.0086 2C11.8043 2 12.5673 2.31607 13.1299 2.87868C13.6925 3.44129 14.0086 4.20435 14.0086 5V6" stroke="#CC1372" stroke-width="2.5" stroke-linecap="round"/>
</svg>
